<?xml version="1.0" encoding="utf-8"?>
<!-- Generator: Adobe Illustrator 19.0.0, SVG Export Plug-In . SVG Version: 6.00 Build 0)  -->
<svg version="1.1" id="Selfmade_by_NICF-Nettie" xmlns="http://www.w3.org/2000/svg" xmlns:xlink="http://www.w3.org/1999/xlink"
	 x="0px" y="0px" viewBox="0 0 202.5 33.9" style="enable-background:new 0 0 202.5 33.9;" xml:space="preserve">
<style type="text/css">
	.st0{fill:#FFFFFF;}
</style>
<metadata><?xpacket begin="﻿" id="W5M0MpCehiHzreSzNTczkc9d"?>
<x:xmpmeta xmlns:x="adobe:ns:meta/" x:xmptk="Adobe XMP Core 5.6-c067 79.157747, 2015/03/30-23:40:42        ">
   <rdf:RDF xmlns:rdf="http://www.w3.org/1999/02/22-rdf-syntax-ns#">
      <rdf:Description rdf:about=""
            xmlns:xmp="http://ns.adobe.com/xap/1.0/"
            xmlns:xmpGImg="http://ns.adobe.com/xap/1.0/g/img/"
            xmlns:dc="http://purl.org/dc/elements/1.1/"
            xmlns:photoshop="http://ns.adobe.com/photoshop/1.0/"
            xmlns:xmpMM="http://ns.adobe.com/xap/1.0/mm/"
            xmlns:stEvt="http://ns.adobe.com/xap/1.0/sType/ResourceEvent#"
            xmlns:stRef="http://ns.adobe.com/xap/1.0/sType/ResourceRef#"
            xmlns:tiff="http://ns.adobe.com/tiff/1.0/"
            xmlns:exif="http://ns.adobe.com/exif/1.0/"
            xmlns:xmpTPg="http://ns.adobe.com/xap/1.0/t/pg/"
            xmlns:stDim="http://ns.adobe.com/xap/1.0/sType/Dimensions#"
            xmlns:xmpG="http://ns.adobe.com/xap/1.0/g/"
            xmlns:pdf="http://ns.adobe.com/pdf/1.3/">
         <xmp:CreatorTool>Adobe Illustrator CC 2015 (Windows)</xmp:CreatorTool>
         <xmp:CreateDate>2023-01-22T22:27:41+01:00</xmp:CreateDate>
         <xmp:ModifyDate>2023-01-22T22:27:41+01:00</xmp:ModifyDate>
         <xmp:MetadataDate>2023-01-22T22:27:41+01:00</xmp:MetadataDate>
         <xmp:Thumbnails>
            <rdf:Alt>
               <rdf:li rdf:parseType="Resource">
                  <xmpGImg:width>256</xmpGImg:width>
                  <xmpGImg:height>44</xmpGImg:height>
                  <xmpGImg:format>JPEG</xmpGImg:format>
                  <xmpGImg:image>/9j/4AAQSkZJRgABAgEASABIAAD/7QAsUGhvdG9zaG9wIDMuMAA4QklNA+0AAAAAABAASAAAAAEA&#xA;AQBIAAAAAQAB/+4ADkFkb2JlAGTAAAAAAf/bAIQABgQEBAUEBgUFBgkGBQYJCwgGBggLDAoKCwoK&#xA;DBAMDAwMDAwQDA4PEA8ODBMTFBQTExwbGxscHx8fHx8fHx8fHwEHBwcNDA0YEBAYGhURFRofHx8f&#xA;Hx8fHx8fHx8fHx8fHx8fHx8fHx8fHx8fHx8fHx8fHx8fHx8fHx8fHx8fHx8f/8AAEQgALAEAAwER&#xA;AAIRAQMRAf/EAaIAAAAHAQEBAQEAAAAAAAAAAAQFAwIGAQAHCAkKCwEAAgIDAQEBAQEAAAAAAAAA&#xA;AQACAwQFBgcICQoLEAACAQMDAgQCBgcDBAIGAnMBAgMRBAAFIRIxQVEGE2EicYEUMpGhBxWxQiPB&#xA;UtHhMxZi8CRygvElQzRTkqKyY3PCNUQnk6OzNhdUZHTD0uIIJoMJChgZhJRFRqS0VtNVKBry4/PE&#xA;1OT0ZXWFlaW1xdXl9WZ2hpamtsbW5vY3R1dnd4eXp7fH1+f3OEhYaHiImKi4yNjo+Ck5SVlpeYmZ&#xA;qbnJ2en5KjpKWmp6ipqqusra6voRAAICAQIDBQUEBQYECAMDbQEAAhEDBCESMUEFURNhIgZxgZEy&#xA;obHwFMHR4SNCFVJicvEzJDRDghaSUyWiY7LCB3PSNeJEgxdUkwgJChgZJjZFGidkdFU38qOzwygp&#xA;0+PzhJSktMTU5PRldYWVpbXF1eX1RlZmdoaWprbG1ub2R1dnd4eXp7fH1+f3OEhYaHiImKi4yNjo&#xA;+DlJWWl5iZmpucnZ6fkqOkpaanqKmqq6ytrq+v/aAAwDAQACEQMRAD8A9U4q7FXYq7FXYq7FXYq7&#xA;FXYq7FXYq7FXYq7FXYq7FXYq7FXYq7FXYq7FXYq7FXYq7FXYq7FXYq7FXYq7FXYq7FXYq7FXYq7F&#xA;XYq7FXYq7FXYq7FXYq7FXYq7FXYq7FXYq7FXYq7FXYq7FXYq7FXYq7FXYq7FXYq7FXYq7FXYq7FX&#xA;Yq7FXYq7FXYq7FXYq7FXYq7FXYq7FXYq7FXYq7FXYq7FXYq7FXYq7FXYq7FXYq7FXYq7FXYq7FXY&#xA;q7FXYq7FXYq7FXYq7FXYq7FXYq7FXYq7FXYq7FXYq7FXYq7FXYq7FXYq7FXYq7FXYq7FXYq7FXYq&#xA;7FXYq7FXYq7FXYq7FXYq7FXYq7FXYq7FXYq7FXYq7FXYq7FXYq7FXYq7FXYq7FXYq7FXYq7FXYq7&#xA;FXYq7FXYq7FXYq7FXYq7FXYq7FXYq7FXYq7FXYq7FXYq7FXYq7FXYq7FXYq7FXYq7FXYq7FXYq7F&#xA;XYq7FX//2Q==</xmpGImg:image>
               </rdf:li>
            </rdf:Alt>
         </xmp:Thumbnails>
         <dc:format>image/svg+xml</dc:format>
         <dc:title>
            <rdf:Alt>
               <rdf:li xml:lang="x-default">002 Black SM by NICF Ai</rdf:li>
            </rdf:Alt>
         </dc:title>
         <photoshop:ColorMode>3</photoshop:ColorMode>
         <photoshop:TextLayers>
            <rdf:Bag>
               <rdf:li rdf:parseType="Resource">
                  <photoshop:LayerName>THE LAST OF US</photoshop:LayerName>
                  <photoshop:LayerText>THE LAST OF US</photoshop:LayerText>
               </rdf:li>
               <rdf:li rdf:parseType="Resource">
                  <photoshop:LayerName>ORIGINAL</photoshop:LayerName>
                  <photoshop:LayerText>ORIGINAL</photoshop:LayerText>
               </rdf:li>
               <rdf:li rdf:parseType="Resource">
                  <photoshop:LayerName>Ebene 1</photoshop:LayerName>
                  <photoshop:LayerText/>
               </rdf:li>
            </rdf:Bag>
         </photoshop:TextLayers>
         <xmpMM:InstanceID>xmp.iid:e1ac0d77-adc9-d049-932b-bc18cb2749e7</xmpMM:InstanceID>
         <xmpMM:DocumentID>xmp.did:e1ac0d77-adc9-d049-932b-bc18cb2749e7</xmpMM:DocumentID>
         <xmpMM:OriginalDocumentID>xmp.did:789768df-8358-604e-967c-751dc937bb7a</xmpMM:OriginalDocumentID>
         <xmpMM:RenditionClass>proof:pdf</xmpMM:RenditionClass>
         <xmpMM:History>
            <rdf:Seq>
               <rdf:li rdf:parseType="Resource">
                  <stEvt:action>created</stEvt:action>
                  <stEvt:instanceID>xmp.iid:789768df-8358-604e-967c-751dc937bb7a</stEvt:instanceID>
                  <stEvt:when>2023-01-21T21:47:41+01:00</stEvt:when>
                  <stEvt:softwareAgent>Adobe Photoshop CC 2015 (Windows)</stEvt:softwareAgent>
               </rdf:li>
               <rdf:li rdf:parseType="Resource">
                  <stEvt:action>converted</stEvt:action>
                  <stEvt:parameters>from image/jpeg to application/vnd.adobe.photoshop</stEvt:parameters>
               </rdf:li>
               <rdf:li rdf:parseType="Resource">
                  <stEvt:action>saved</stEvt:action>
                  <stEvt:instanceID>xmp.iid:127ae9c1-1a5f-0f47-b95a-5fcf46c48509</stEvt:instanceID>
                  <stEvt:when>2023-01-22T00:09:37+01:00</stEvt:when>
                  <stEvt:softwareAgent>Adobe Photoshop CC 2015 (Windows)</stEvt:softwareAgent>
                  <stEvt:changed>/</stEvt:changed>
               </rdf:li>
               <rdf:li rdf:parseType="Resource">
                  <stEvt:action>saved</stEvt:action>
                  <stEvt:instanceID>xmp.iid:e1ac0d77-adc9-d049-932b-bc18cb2749e7</stEvt:instanceID>
                  <stEvt:when>2023-01-22T22:27:41+01:00</stEvt:when>
                  <stEvt:softwareAgent>Adobe Illustrator CC 2015 (Windows)</stEvt:softwareAgent>
                  <stEvt:changed>/</stEvt:changed>
               </rdf:li>
            </rdf:Seq>
         </xmpMM:History>
         <xmpMM:DerivedFrom rdf:parseType="Resource">
            <stRef:instanceID>xmp.iid:9e9b0d61-740a-2545-acd2-80434179cf5a</stRef:instanceID>
            <stRef:documentID>xmp.did:9e9b0d61-740a-2545-acd2-80434179cf5a</stRef:documentID>
            <stRef:originalDocumentID>xmp.did:789768df-8358-604e-967c-751dc937bb7a</stRef:originalDocumentID>
            <stRef:renditionClass>proof:pdf</stRef:renditionClass>
         </xmpMM:DerivedFrom>
         <tiff:Orientation>1</tiff:Orientation>
         <tiff:XResolution>720000/10000</tiff:XResolution>
         <tiff:YResolution>720000/10000</tiff:YResolution>
         <tiff:ResolutionUnit>2</tiff:ResolutionUnit>
         <exif:ColorSpace>1</exif:ColorSpace>
         <exif:PixelXDimension>892</exif:PixelXDimension>
         <exif:PixelYDimension>252</exif:PixelYDimension>
         <xmpTPg:NPages>1</xmpTPg:NPages>
         <xmpTPg:HasVisibleTransparency>False</xmpTPg:HasVisibleTransparency>
         <xmpTPg:HasVisibleOverprint>False</xmpTPg:HasVisibleOverprint>
         <xmpTPg:MaxPageSize rdf:parseType="Resource">
            <stDim:w>71.437500</stDim:w>
            <stDim:h>11.950347</stDim:h>
            <stDim:unit>Millimeters</stDim:unit>
         </xmpTPg:MaxPageSize>
         <xmpTPg:SwatchGroups>
            <rdf:Seq>
               <rdf:li rdf:parseType="Resource">
                  <xmpG:groupName>Standard-Farbfeldgruppe</xmpG:groupName>
                  <xmpG:groupType>0</xmpG:groupType>
               </rdf:li>
            </rdf:Seq>
         </xmpTPg:SwatchGroups>
         <pdf:Producer>Adobe PDF library 15.00</pdf:Producer>
      </rdf:Description>
   </rdf:RDF>
</x:xmpmeta>
                                                                                                    
                                                                                                    
                                                                                                    
                                                                                                    
                                                                                                    
                                                                                                    
                                                                                                    
                                                                                                    
                                                                                                    
                                                                                                    
                                                                                                    
                                                                                                    
                                                                                                    
                                                                                                    
                                                                                                    
                                                                                                    
                                                                                                    
                                                                                                    
                                                                                                    
                                                                                                    
                           
<?xpacket end="w"?>
	</metadata>
<g id="Contact:_crazycovers.net">
</g>
<g id="HBO_Original_-_Logo_by_NICF-Nettie">
	<g id="Original_by_NICF-Nettie">
		<g>
			<rect x="120.5" y="15" class="st0" width="2.6" height="17.3"/>
			<path class="st0" d="M115.8,24.4c1.2-1.1,1.7-2.4,1.7-3.9c0-3.1-2.6-5.5-5.7-5.5H105v17.3h2.5v-6.2h4.2l3.5,6.2h2.8l-3.8-6.7
				C114.8,25.2,115.3,24.9,115.8,24.4z M111.8,23.7h-4.2v-6.4h4.2c1.9,0,3.1,1.6,3.1,3.2C114.9,22.1,113.7,23.7,111.8,23.7z"/>
			<path class="st0" d="M92.7,14.8c-2.6,0-4.8,0.9-6.5,2.6c-1.8,1.8-2.6,3.9-2.6,6.2c0,2.3,0.8,4.5,2.6,6.2c1.7,1.6,3.9,2.6,6.5,2.6
				c2.6,0,4.8-0.9,6.5-2.6c1.8-1.8,2.6-3.9,2.6-6.2c0-2.3-0.8-4.5-2.6-6.2C97.5,15.8,95.3,14.8,92.7,14.8z M92.7,30.2
				c-1.9,0-3.4-0.7-4.6-1.9c-1.4-1.3-2-2.9-2-4.6c0-3.7,2.9-6.5,6.6-6.5c3.7,0,6.6,2.9,6.6,6.5C99.2,27.3,96.3,30.2,92.7,30.2z"/>
			<polygon class="st0" points="189.8,29.9 189.8,15 187.2,15 187.2,32.3 199.8,32.3 199.8,29.9 			"/>
			<path class="st0" d="M176.1,15L169,32.3h2.9l1.6-4h7.6l1.6,4h2.8L178.4,15H176.1z M174.4,26.1l2.9-7.1l2.9,7.1H174.4z"/>
			<polygon class="st0" points="164.6,27.6 156.1,15 154,15 154,32.3 156.4,32.3 156.4,19.6 165,32.3 167.1,32.3 167.1,15 164.6,15 
							"/>
			<path class="st0" d="M135.3,23.5c0,0.8,0,1.5,0,2.3c2.1,0,4.2,0,6.3,0c-0.7,2.6-3.1,4.4-6.3,4.4c-1.9,0-3.4-0.7-4.6-1.9
				c-1.3-1.3-2-2.9-2-4.6c0-2.6,1.6-5,4-6c0.8-0.3,1.6-0.5,2.5-0.5c0.5,0,2.5,0.1,4.3,1.6c0.5,0.4,0.8,0.9,1.1,1.2
				c0.7-0.4,1.4-0.8,2-1.3c-0.5-0.8-1.8-2.2-3.9-3.1c-0.3-0.1-1.7-0.7-3.6-0.7c-2.6,0-4.7,0.9-6.4,2.6c-1.7,1.7-2.6,3.8-2.6,6.2
				c0,3.6,2.1,6.7,5.5,8.2c1.1,0.5,2.3,0.7,3.6,0.7c0.3,0,5.9-0.2,8.1-4.6c0.3-0.7,1-2.2,0.8-4.4C141.3,23.5,138.3,23.5,135.3,23.5z
				"/>
			<rect x="147.2" y="15" class="st0" width="2.6" height="17.3"/>
		</g>
	</g>
	<g id="HBO_by_HBO">
		<polyline id="Fill-15" class="st0" points="25.3,32.7 17,32.7 17,20.8 11.6,20.8 11.6,32.7 3,32.7 3,1.9 11.6,1.9 11.6,13.4 
			17,13.4 17,1.9 25.3,1.9 25.3,32.7 		"/>
		<path id="Fill-16" class="st0" d="M63.3,23.2c3.4,0,6.1-2.8,6.1-6.2c0-3.4-2.7-6.2-6.1-6.2c-3.4,0-6.1,2.8-6.1,6.2
			C57.2,20.5,59.9,23.2,63.3,23.2z M55.6,17.1c0-4.3,3.5-7.8,7.8-7.8c4.3,0,7.8,3.5,7.8,7.8c0,4.3-3.5,7.8-7.8,7.8
			C59,24.9,55.6,21.4,55.6,17.1z M44.8,17.1c1-0.1,2.6-1.2,3.1-1.9c-0.2,0.9-0.2,3.4,0,4.3C47.3,18.4,45.7,17.2,44.8,17.1z
			 M39.2,8.8c1.2,0,2.2,1.2,2.2,2.6s-1,2.6-2.2,2.6H35V8.8H39.2z M39.2,20.3c1.2,0,2.2,1.2,2.2,2.6c0,1.4-1,2.6-2.2,2.6H35v-5.2
			H39.2z M63.3,32.9c8.5,0,15.5-7.2,15.5-15.8c0-8.8-6.9-15.7-15.5-15.7c-8.5,0-12.9,6.3-14,8.9c0-3.8-3.7-8.4-8.1-8.4H27.1v30.8
			l13.2,0c5.3,0,9.1-4.6,9.1-8.6C50.6,26.6,54.8,32.9,63.3,32.9L63.3,32.9z"/>
		<path id="Fill-17" class="st0" d="M76.5,3.6V3H77c0.2,0,0.5,0.1,0.5,0.3c0,0.3-0.2,0.4-0.5,0.4H76.5z M76.5,3.9h0.4l0.6,0.9h0.4
			l-0.6-1c0.3,0,0.6-0.2,0.6-0.6c0-0.4-0.3-0.6-0.8-0.6h-0.8v2.2h0.3V3.9z M76.9,5.7c1,0,1.9-0.8,1.9-1.9c0-1.1-0.9-1.9-1.9-1.9
			c-1,0-1.9,0.8-1.9,1.9C75,4.9,75.9,5.7,76.9,5.7z M75.4,3.8c0-0.9,0.7-1.6,1.5-1.6c0.8,0,1.5,0.7,1.5,1.6c0,0.9-0.7,1.6-1.5,1.6
			C76.1,5.4,75.4,4.7,75.4,3.8L75.4,3.8z"/>
	</g>
</g>
</svg>
